# xmcd CD database file
#
# Track frame offsets:
#	150
#	20525
#	36812
#	54835
#	72400
#	92062
#	123255
#	142242
#	160885
#	180737
#	198475
#	217747
#	237677
#	257022
#	276650
#
# Disc length: 3974 seconds
#
# Revision: 2
# Processed by: cddbd v1.5.1PL2 Copyright (c) Steve Scherf et al.
# Submitted via: CDex 1.51
#
DISCID=e20f840f
DTITLE=菊池桃子 - 菊地桃子 スペシャル・セレクションI
DYEAR=1993
DGENRE=Pop
TTITLE0=青春のいじわる
TTITLE1=SUMMER EYES
TTITLE2=雪に書いたLOVE LETTER
TTITLE3=卒業−ＧＲＡＤＵＡＴＩＯＮ−
TTITLE4=BOYのテーマ
TTITLE5=I WILL
TTITLE6=もう逢えないかもしれない
TTITLE7=Broken Sunset
TTITLE8=EDEN OF GALAXY
TTITLE9=夏色片想い
TTITLE10=SAY YES!
TTITLE11=Ivory Coast
TTITLE12=アイドルを探せ
TTITLE13=Nile in Blue
TTITLE14=ガラスの草原
EXTD=YEAR: 1993
EXTT0=
EXTT1=
EXTT2=
EXTT3=
EXTT4=
EXTT5=
EXTT6=
EXTT7=
EXTT8=
EXTT9=
EXTT10=
EXTT11=
EXTT12=
EXTT13=
EXTT14=
PLAYORDER=
